<?xml version="1.0" encoding="iso-8859-1"?>
<!-- Generator: Adobe Illustrator 19.0.0, SVG Export Plug-In . SVG Version: 6.00 Build 0)  -->
<svg version="1.1" id="Capa_1" xmlns="http://www.w3.org/2000/svg" xmlns:xlink="http://www.w3.org/1999/xlink" x="0px" y="0px"
	 viewBox="0 0 512 512" style="enable-background:new 0 0 512 512;" xml:space="preserve" fill="white">
<g>
	<g>
		<path d="M403.213,20H0v472h512V128.787L403.213,20z M131,50h180v100h10h20h10V50h30v130H131V50z M381,462H131V315
			c0-8.271,6.729-15,15-15h220c8.271,0,15,6.729,15,15V462z M482,462h-71V315c0-24.813-20.187-45-45-45H146
			c-24.813,0-45,20.187-45,45v147H30V50h71v160h310V70.213l71,71V462z"/>
	</g>
</g>
<g>
</g>
<g>
</g>
<g>
</g>
<g>
</g>
<g>
</g>
<g>
</g>
<g>
</g>
<g>
</g>
<g>
</g>
<g>
</g>
<g>
</g>
<g>
</g>
<g>
</g>
<g>
</g>
<g>
</g>
</svg>
